<svg xmlns="http://www.w3.org/2000/svg" xmlns:xlink="http://www.w3.org/1999/xlink" width="500" zoomAndPan="magnify" viewBox="0 0 375 374.999991" height="500" preserveAspectRatio="xMidYMid meet" version="1.0"><defs><clipPath id="b48bddd7a7"><path d="M 101.53125 102.675781 L 306.28125 102.675781 L 306.28125 366.675781 L 101.53125 366.675781 Z M 101.53125 102.675781 " clip-rule="nonzero"/></clipPath><clipPath id="d29f0a54a9"><path d="M 21.796875 27 L 335 27 L 335 350 L 21.796875 350 Z M 21.796875 27 " clip-rule="nonzero"/></clipPath><clipPath id="9d6a9c81ad"><path d="M 264.285156 326 L 282 326 L 282 352 L 264.285156 352 Z M 264.285156 326 " clip-rule="nonzero"/></clipPath><clipPath id="1b984acc2f"><path d="M 297 326 L 313.785156 326 L 313.785156 352 L 297 352 Z M 297 326 " clip-rule="nonzero"/></clipPath><clipPath id="6101f42dcd"><path d="M 296 326 L 313.785156 326 L 313.785156 352 L 296 352 Z M 296 326 " clip-rule="nonzero"/></clipPath><clipPath id="35a73fd2c4"><path d="M 280 319.785156 L 298 319.785156 L 298 358.035156 L 280 358.035156 Z M 280 319.785156 " clip-rule="nonzero"/></clipPath><clipPath id="dbf28adfc6"><path d="M 231 130.617188 L 303 130.617188 L 303 243 L 231 243 Z M 231 130.617188 " clip-rule="nonzero"/></clipPath><clipPath id="db38e5f373"><path d="M 229.914062 130.617188 L 304 130.617188 L 304 245.367188 L 229.914062 245.367188 Z M 229.914062 130.617188 " clip-rule="nonzero"/></clipPath></defs><g clip-path="url(#b48bddd7a7)"><path fill="#5ce1e6" d="M 140.539062 128.84375 C 140.539062 114.941406 152.136719 104.613281 172.15625 104.613281 C 194.800781 104.613281 214.027344 117.5625 214.027344 141.792969 L 216.410156 141.792969 L 216.410156 114.941406 L 214.027344 114.941406 C 214.027344 119.148438 213.550781 121.214844 212.199219 121.214844 C 211.167969 121.214844 209.816406 120.421875 207.75 117.800781 C 199.804688 108.582031 186.140625 102.785156 170.808594 102.785156 C 144.75 102.785156 126 119.386719 126 139.410156 C 126 158.636719 142.921875 171.265625 166.597656 181.039062 C 181.292969 187.234375 193.132812 194.386719 202.03125 202.410156 L 165.960938 248.25 L 165.960938 209.003906 C 165.960938 195.019531 169.378906 189.460938 178.273438 189.460938 L 178.273438 188.664062 L 140.699219 188.664062 C 117.894531 189.378906 101.53125 210.988281 101.53125 235.855469 C 101.53125 263.425781 121.390625 286.382812 149.832031 294.011719 L 149.832031 300.128906 C 149.832031 314.113281 146.417969 319.671875 137.441406 319.671875 L 137.441406 320.46875 L 178.273438 320.46875 L 178.273438 319.671875 C 169.378906 319.671875 165.960938 314.113281 165.960938 300.128906 L 165.960938 296.554688 C 167.550781 296.632812 169.140625 296.710938 170.808594 296.710938 C 179.308594 296.710938 187.253906 295.441406 194.484375 293.058594 L 234.683594 342.792969 C 245.488281 356.296875 261.058594 366.546875 280.523438 366.546875 C 295.0625 366.546875 302.925781 360.984375 306.105469 358.363281 L 306.105469 357.09375 C 302.449219 359.714844 295.855469 360.984375 289.5 360.984375 C 275.519531 360.984375 266.0625 354.707031 248.425781 333.894531 L 208.703125 286.304688 C 226.023438 275.183594 236.429688 255.878906 236.429688 231.882812 C 236.429688 204.238281 222.449219 187.632812 183.757812 169.679688 C 153.726562 155.773438 140.539062 143.621094 140.539062 128.84375 Z M 204.015625 204.238281 C 215.851562 215.675781 221.972656 228.867188 221.972656 243.484375 C 221.972656 258.894531 215.21875 271.765625 203.539062 280.027344 L 173.269531 243.722656 Z M 189.476562 286.941406 C 183.4375 288.847656 176.605469 289.878906 169.21875 289.878906 C 168.105469 289.878906 166.992188 289.800781 165.960938 289.800781 L 165.960938 257.703125 Z M 149.832031 287.339844 C 124.011719 280.425781 105.742188 259.769531 105.742188 234.03125 C 105.742188 211.863281 119.246094 191.84375 139.109375 190.097656 C 149.117188 189.222656 149.832031 201.695312 149.832031 209.003906 Z M 149.832031 287.339844 " fill-opacity="1" fill-rule="nonzero"/></g><path fill="#00bf63" d="M 39.117188 256.304688 C 38.523438 255.0625 37.878906 253.832031 37.320312 252.550781 C 36.769531 251.261719 36.21875 249.96875 35.660156 248.667969 C 35.382812 248.015625 35.105469 247.363281 34.828125 246.707031 C 34.582031 246.039062 34.332031 245.367188 34.082031 244.695312 C 33.589844 243.347656 33.09375 241.996094 32.59375 240.632812 C 32.109375 239.265625 31.710938 237.859375 31.265625 236.464844 C 30.84375 235.058594 30.355469 233.664062 30.015625 232.222656 C 29.648438 230.785156 29.28125 229.34375 28.910156 227.894531 L 28.636719 226.804688 L 28.40625 225.699219 C 28.257812 224.964844 28.105469 224.226562 27.957031 223.488281 C 26.699219 217.578125 25.957031 211.46875 25.484375 205.273438 C 25.40625 203.71875 25.324219 202.164062 25.246094 200.601562 C 25.191406 199.820312 25.1875 199.039062 25.191406 198.253906 L 25.183594 195.898438 C 25.121094 192.75 25.347656 189.597656 25.492188 186.429688 C 26.410156 173.773438 29.007812 161.023438 33.402344 148.890625 L 34.214844 146.613281 C 34.503906 145.859375 34.816406 145.117188 35.121094 144.371094 C 35.734375 142.878906 36.332031 141.378906 36.96875 139.902344 C 38.34375 136.988281 39.632812 134.035156 41.191406 131.21875 L 42.316406 129.089844 C 42.6875 128.375 43.070312 127.671875 43.488281 126.988281 C 44.308594 125.609375 45.125 124.234375 45.941406 122.859375 C 46.75 121.476562 47.679688 120.175781 48.546875 118.835938 C 49.429688 117.511719 50.292969 116.171875 51.257812 114.914062 C 52.199219 113.632812 53.140625 112.359375 54.078125 111.085938 C 55.046875 109.835938 56.066406 108.628906 57.054688 107.40625 L 58.550781 105.585938 C 59.058594 104.988281 59.597656 104.417969 60.121094 103.832031 C 61.171875 102.675781 62.222656 101.523438 63.269531 100.371094 C 64.355469 99.257812 65.460938 98.171875 66.554688 97.082031 C 67.105469 96.539062 67.652344 95.996094 68.199219 95.453125 C 68.753906 94.921875 69.335938 94.417969 69.902344 93.898438 C 71.039062 92.875 72.175781 91.855469 73.308594 90.835938 C 74.460938 89.84375 75.65625 88.910156 76.820312 87.953125 C 79.125 86.007812 81.589844 84.304688 83.972656 82.558594 C 85.152344 81.660156 86.417969 80.910156 87.632812 80.09375 C 88.863281 79.300781 90.070312 78.488281 91.300781 77.730469 C 92.554688 77.003906 93.796875 76.277344 95.035156 75.558594 C 96.273438 74.84375 97.496094 74.113281 98.765625 73.492188 C 101.292969 72.21875 103.746094 70.878906 106.289062 69.804688 C 116.328125 65.242188 126.339844 62.152344 135.738281 60.265625 C 145.140625 58.363281 153.921875 57.683594 161.667969 57.648438 C 162.636719 57.640625 163.585938 57.636719 164.523438 57.632812 C 165.460938 57.621094 166.378906 57.695312 167.285156 57.726562 C 169.089844 57.820312 170.832031 57.867188 172.496094 58.003906 C 175.828125 58.335938 178.882812 58.589844 181.617188 59.050781 C 182.984375 59.261719 184.277344 59.453125 185.496094 59.640625 C 186.707031 59.882812 187.835938 60.113281 188.890625 60.328125 C 189.941406 60.542969 190.914062 60.746094 191.800781 60.929688 C 192.6875 61.132812 193.484375 61.355469 194.203125 61.53125 C 197.0625 62.273438 198.585938 62.675781 198.585938 62.675781 C 198.585938 62.675781 197.03125 62.410156 194.121094 61.917969 C 193.394531 61.792969 192.585938 61.640625 191.691406 61.507812 C 190.792969 61.398438 189.8125 61.277344 188.753906 61.144531 C 187.695312 61.011719 186.558594 60.875 185.34375 60.726562 C 184.128906 60.625 182.832031 60.519531 181.464844 60.40625 C 178.742188 60.128906 175.703125 60.097656 172.410156 59.988281 C 170.761719 59.960938 169.042969 60.023438 167.265625 60.039062 C 166.378906 60.0625 165.472656 60.042969 164.554688 60.101562 C 163.636719 60.160156 162.703125 60.214844 161.753906 60.269531 C 154.167969 60.738281 145.648438 61.898438 136.609375 64.148438 C 127.574219 66.394531 118.023438 69.761719 108.503906 74.472656 C 106.09375 75.585938 103.773438 76.957031 101.382812 78.25 C 100.179688 78.882812 99.023438 79.621094 97.855469 80.34375 C 96.6875 81.070312 95.511719 81.796875 94.328125 82.527344 C 93.167969 83.285156 92.027344 84.097656 90.867188 84.890625 C 89.722656 85.703125 88.527344 86.449219 87.417969 87.339844 C 85.175781 89.074219 82.855469 90.753906 80.6875 92.664062 C 79.589844 93.601562 78.464844 94.515625 77.382812 95.484375 C 76.316406 96.476562 75.25 97.472656 74.179688 98.472656 C 73.648438 98.976562 73.101562 99.464844 72.578125 99.984375 C 72.070312 100.511719 71.554688 101.039062 71.042969 101.570312 C 70.019531 102.632812 68.992188 103.699219 67.960938 104.769531 C 66.984375 105.882812 66 107 65.015625 108.121094 C 64.527344 108.683594 64.023438 109.238281 63.546875 109.8125 L 62.148438 111.570312 C 61.21875 112.75 60.261719 113.910156 59.351562 115.109375 C 58.46875 116.332031 57.585938 117.554688 56.699219 118.78125 C 55.792969 119.992188 54.988281 121.277344 54.160156 122.546875 C 53.347656 123.828125 52.46875 125.074219 51.714844 126.394531 C 50.945312 127.710938 50.175781 129.027344 49.40625 130.34375 C 49.011719 130.996094 48.648438 131.667969 48.300781 132.347656 L 47.238281 134.382812 C 45.769531 137.066406 44.558594 139.882812 43.253906 142.660156 C 42.652344 144.070312 42.089844 145.496094 41.507812 146.914062 C 41.222656 147.625 40.925781 148.335938 40.652344 149.050781 L 39.886719 151.222656 C 35.671875 162.753906 33.1875 174.878906 32.164062 186.921875 C 32.003906 189.941406 31.75 192.945312 31.777344 195.945312 L 31.75 198.191406 C 31.738281 198.9375 31.730469 199.683594 31.765625 200.429688 C 31.820312 201.921875 31.871094 203.40625 31.921875 204.890625 C 32.265625 210.808594 32.863281 216.660156 33.960938 222.332031 C 34.089844 223.042969 34.214844 223.75 34.34375 224.457031 L 34.539062 225.515625 L 34.78125 226.5625 C 35.101562 227.960938 35.421875 229.351562 35.742188 230.730469 C 36.03125 232.125 36.46875 233.46875 36.835938 234.824219 C 37.226562 236.171875 37.574219 237.53125 38 238.855469 C 38.445312 240.175781 38.886719 241.488281 39.324219 242.792969 C 39.542969 243.445312 39.761719 244.097656 39.980469 244.746094 C 40.230469 245.382812 40.480469 246.015625 40.726562 246.648438 C 41.222656 247.917969 41.714844 249.179688 42.203125 250.433594 C 42.699219 251.679688 43.285156 252.882812 43.816406 254.097656 C 48.164062 263.792969 53.367188 272.445312 58.878906 279.941406 C 64.394531 287.441406 70.203125 293.777344 75.746094 298.984375 C 81.300781 304.175781 86.507812 308.347656 91.015625 311.472656 C 92.144531 312.25 93.1875 313.035156 94.210938 313.695312 C 95.242188 314.359375 96.207031 314.976562 97.101562 315.554688 C 98.003906 316.128906 98.824219 316.683594 99.601562 317.148438 C 100.386719 317.601562 101.097656 318.011719 101.734375 318.382812 C 103.011719 319.125 103.988281 319.695312 104.648438 320.078125 C 104.976562 320.273438 105.230469 320.410156 105.40625 320.496094 C 105.578125 320.585938 105.664062 320.632812 105.664062 320.632812 C 105.664062 320.632812 105.574219 320.597656 105.394531 320.519531 C 105.210938 320.449219 104.949219 320.335938 104.605469 320.167969 C 103.914062 319.84375 102.886719 319.363281 101.550781 318.730469 C 100.882812 318.414062 100.136719 318.058594 99.316406 317.664062 C 98.5 317.261719 97.632812 316.777344 96.683594 316.277344 C 95.738281 315.765625 94.71875 315.21875 93.636719 314.632812 C 92.550781 314.042969 91.453125 313.332031 90.265625 312.617188 C 85.503906 309.78125 79.929688 305.949219 73.992188 300.957031 C 68.046875 295.984375 61.730469 289.839844 55.714844 282.382812 C 49.695312 274.933594 43.964844 266.214844 39.117188 256.304688 " fill-opacity="1" fill-rule="nonzero"/><path fill="#00bf63" d="M 73.519531 286.554688 C 73.082031 286.089844 72.640625 285.625 72.199219 285.160156 C 71.316406 284.230469 70.425781 283.292969 69.53125 282.347656 C 68.632812 281.40625 67.820312 280.378906 66.953125 279.390625 C 66.109375 278.378906 65.214844 277.398438 64.398438 276.34375 C 63.585938 275.289062 62.769531 274.226562 61.949219 273.160156 C 61.542969 272.625 61.132812 272.085938 60.722656 271.546875 C 60.339844 270.992188 59.953125 270.433594 59.566406 269.875 C 58.796875 268.75 58.019531 267.625 57.242188 266.496094 C 56.488281 265.347656 55.789062 264.160156 55.054688 262.984375 C 53.554688 260.648438 52.265625 258.164062 50.914062 255.695312 C 50.210938 254.476562 49.652344 253.171875 49.019531 251.902344 C 48.421875 250.613281 47.75 249.355469 47.203125 248.035156 C 46.109375 245.398438 44.929688 242.769531 44.007812 240.027344 C 43.539062 238.664062 42.992188 237.316406 42.582031 235.921875 C 42.160156 234.535156 41.742188 233.140625 41.320312 231.742188 C 39.757812 226.125 38.433594 220.375 37.679688 214.511719 L 37.367188 212.316406 C 37.261719 211.585938 37.21875 210.84375 37.140625 210.109375 L 36.726562 205.6875 L 36.527344 201.246094 C 36.5 200.507812 36.441406 199.765625 36.445312 199.023438 L 36.453125 196.800781 C 36.429688 184.933594 38.175781 173.089844 41.335938 161.863281 C 42.191406 159.074219 42.988281 156.28125 44.027344 153.578125 L 44.761719 151.542969 L 45.132812 150.53125 L 45.546875 149.535156 C 46.101562 148.210938 46.65625 146.886719 47.207031 145.570312 C 49.566406 140.367188 52.085938 135.3125 55.023438 130.601562 C 60.742188 121.09375 67.625 112.777344 74.894531 105.730469 C 82.164062 98.675781 89.867188 92.914062 97.40625 88.382812 C 104.945312 83.835938 112.320312 80.527344 119 78.097656 C 119.832031 77.789062 120.652344 77.484375 121.460938 77.183594 C 122.28125 76.925781 123.085938 76.667969 123.878906 76.421875 C 125.46875 75.945312 126.980469 75.421875 128.46875 75.042969 C 131.449219 74.300781 134.167969 73.5625 136.675781 73.125 C 137.921875 72.878906 139.101562 72.644531 140.210938 72.425781 C 141.328125 72.265625 142.378906 72.117188 143.355469 71.980469 C 144.332031 71.84375 145.234375 71.71875 146.058594 71.605469 C 146.886719 71.492188 147.644531 71.453125 148.320312 71.382812 C 151.023438 71.152344 152.464844 71.03125 152.464844 71.03125 C 152.464844 71.03125 151.042969 71.289062 148.375 71.773438 C 147.710938 71.894531 146.964844 72 146.152344 72.1875 C 145.34375 72.375 144.460938 72.578125 143.507812 72.796875 C 142.554688 73.015625 141.527344 73.25 140.433594 73.5 C 139.355469 73.796875 138.207031 74.113281 136.996094 74.449219 C 134.554688 75.058594 131.929688 76 129.058594 76.9375 C 127.628906 77.414062 126.175781 78.03125 124.648438 78.601562 C 123.890625 78.894531 123.117188 79.191406 122.332031 79.496094 C 121.558594 79.835938 120.773438 80.179688 119.976562 80.53125 C 113.59375 83.316406 106.628906 86.984375 99.539062 91.738281 C 92.457031 96.492188 85.28125 102.363281 78.554688 109.382812 C 71.828125 116.394531 65.5 124.527344 60.265625 133.714844 C 57.558594 138.253906 55.261719 143.117188 53.117188 148.101562 C 52.617188 149.367188 52.113281 150.628906 51.609375 151.902344 L 51.230469 152.851562 L 50.898438 153.820312 L 50.226562 155.765625 C 49.277344 158.339844 48.5625 161.003906 47.765625 163.65625 C 44.917969 174.347656 43.285156 185.566406 43.34375 196.804688 L 43.328125 198.910156 C 43.324219 199.613281 43.378906 200.316406 43.398438 201.015625 L 43.578125 205.222656 L 43.957031 209.414062 C 44.027344 210.109375 44.0625 210.8125 44.160156 211.503906 L 44.453125 213.582031 C 45.136719 219.140625 46.351562 224.59375 47.757812 229.941406 C 48.144531 231.269531 48.53125 232.59375 48.917969 233.914062 C 49.289062 235.246094 49.792969 236.523438 50.222656 237.828125 C 51.054688 240.445312 52.136719 242.953125 53.125 245.480469 C 53.617188 246.746094 54.234375 247.957031 54.777344 249.1875 C 55.355469 250.410156 55.855469 251.664062 56.503906 252.835938 C 57.746094 255.210938 58.921875 257.601562 60.308594 259.855469 C 60.984375 260.992188 61.621094 262.144531 62.3125 263.257812 C 63.027344 264.355469 63.742188 265.449219 64.449219 266.535156 C 64.804688 267.082031 65.15625 267.625 65.511719 268.167969 C 65.886719 268.691406 66.265625 269.214844 66.640625 269.734375 C 67.394531 270.777344 68.144531 271.816406 68.890625 272.847656 C 69.640625 273.878906 70.46875 274.835938 71.246094 275.832031 C 72.042969 276.804688 72.789062 277.816406 73.621094 278.742188 C 74.445312 279.675781 75.265625 280.601562 76.082031 281.523438 C 76.492188 281.984375 76.898438 282.445312 77.304688 282.902344 C 77.730469 283.339844 78.15625 283.773438 78.582031 284.210938 C 85.316406 291.222656 92.480469 297.09375 99.558594 301.847656 C 106.636719 306.605469 113.609375 310.265625 120 313.035156 C 121.582031 313.773438 123.164062 314.359375 124.679688 314.953125 C 125.4375 315.25 126.183594 315.542969 126.914062 315.828125 C 127.644531 316.128906 128.382812 316.339844 129.097656 316.597656 C 130.527344 317.082031 131.902344 317.546875 133.214844 317.996094 C 134.550781 318.378906 135.820312 318.75 137.027344 319.097656 C 141.871094 320.445312 145.75 321.292969 148.410156 321.773438 C 149.738281 322.03125 150.753906 322.257812 151.449219 322.34375 C 152.140625 322.445312 152.5 322.496094 152.5 322.496094 C 152.5 322.496094 152.136719 322.480469 151.4375 322.441406 C 150.734375 322.425781 149.703125 322.296875 148.355469 322.164062 C 145.652344 321.902344 141.6875 321.445312 136.707031 320.433594 C 135.460938 320.171875 134.152344 319.894531 132.777344 319.605469 C 131.414062 319.253906 129.988281 318.882812 128.503906 318.5 C 127.765625 318.292969 126.996094 318.128906 126.238281 317.882812 C 125.476562 317.640625 124.699219 317.394531 123.90625 317.144531 C 122.324219 316.640625 120.675781 316.144531 119.023438 315.488281 C 112.335938 313.078125 104.957031 309.769531 97.417969 305.222656 C 89.878906 300.683594 82.179688 294.921875 74.902344 287.867188 C 74.441406 287.429688 73.980469 286.992188 73.519531 286.554688 " fill-opacity="1" fill-rule="nonzero"/><path fill="#00bf63" d="M 122.058594 306.574219 C 115.828125 304.105469 109.742188 301.105469 103.96875 297.539062 C 98.199219 293.964844 92.722656 289.878906 87.628906 285.359375 C 82.554688 280.816406 77.832031 275.875 73.636719 270.535156 C 69.453125 265.191406 65.730469 259.507812 62.519531 253.621094 C 59.273438 247.75 56.660156 241.609375 54.570312 235.390625 C 52.492188 229.171875 50.910156 222.875 49.898438 216.589844 C 48.925781 210.296875 48.472656 204.042969 48.476562 197.925781 C 48.441406 191.804688 49.050781 185.828125 49.9375 180.085938 C 50.058594 179.367188 50.175781 178.652344 50.292969 177.941406 C 50.410156 177.230469 50.519531 176.519531 50.6875 175.820312 C 50.988281 174.417969 51.289062 173.03125 51.585938 171.652344 C 51.898438 170.273438 52.300781 168.929688 52.648438 167.582031 C 52.828125 166.914062 53.007812 166.246094 53.1875 165.582031 C 53.398438 164.925781 53.609375 164.273438 53.816406 163.625 C 55.390625 158.394531 57.4375 153.519531 59.546875 148.933594 C 63.898438 139.816406 69 132.050781 74.152344 125.734375 C 79.296875 119.40625 84.445312 114.484375 88.929688 110.769531 C 89.488281 110.296875 90 109.8125 90.550781 109.398438 C 91.09375 108.976562 91.625 108.566406 92.140625 108.171875 C 93.167969 107.382812 94.121094 106.632812 95.027344 105.964844 C 96.890625 104.683594 98.472656 103.59375 99.753906 102.710938 C 102.410156 101.085938 103.828125 100.222656 103.828125 100.222656 C 103.828125 100.222656 102.488281 101.199219 99.984375 103.03125 C 98.777344 104.003906 97.289062 105.203125 95.542969 106.613281 C 94.691406 107.347656 93.804688 108.164062 92.84375 109.011719 C 92.359375 109.4375 91.867188 109.875 91.355469 110.328125 C 90.839844 110.773438 90.363281 111.285156 89.839844 111.78125 C 85.652344 115.730469 80.945312 120.914062 76.230469 127.339844 C 71.535156 133.777344 67.003906 141.585938 63.175781 150.558594 C 61.332031 155.074219 59.554688 159.839844 58.230469 164.921875 C 58.050781 165.550781 57.871094 166.1875 57.691406 166.824219 C 57.546875 167.46875 57.394531 168.113281 57.246094 168.765625 C 56.960938 170.066406 56.621094 171.367188 56.367188 172.695312 C 56.125 174.027344 55.882812 175.367188 55.636719 176.71875 C 55.5 177.390625 55.417969 178.074219 55.328125 178.761719 C 55.238281 179.445312 55.148438 180.132812 55.054688 180.824219 C 54.382812 186.339844 53.960938 192.050781 54.148438 197.875 C 54.296875 203.695312 54.867188 209.625 55.910156 215.570312 C 56.972656 221.511719 58.582031 227.445312 60.648438 233.289062 C 62.71875 239.132812 65.265625 244.890625 68.375 250.410156 C 71.472656 255.933594 75.019531 261.269531 78.984375 266.292969 C 82.960938 271.308594 87.421875 275.949219 92.210938 280.210938 C 96.992188 284.480469 102.140625 288.335938 107.5625 291.726562 C 112.988281 295.109375 118.703125 297.972656 124.554688 300.371094 C 130.417969 302.753906 136.425781 304.644531 142.476562 306.046875 C 148.527344 307.457031 154.636719 308.257812 160.660156 308.636719 C 161.414062 308.6875 162.167969 308.734375 162.917969 308.78125 C 163.667969 308.828125 164.417969 308.8125 165.167969 308.832031 C 165.917969 308.84375 166.664062 308.855469 167.410156 308.871094 C 168.15625 308.890625 168.898438 308.898438 169.640625 308.859375 C 171.125 308.816406 172.601562 308.769531 174.070312 308.722656 C 175.535156 308.605469 176.996094 308.488281 178.445312 308.375 C 184.234375 307.796875 189.867188 306.851562 195.261719 305.523438 C 196.609375 305.191406 197.925781 304.789062 199.25 304.429688 C 199.910156 304.242188 200.574219 304.078125 201.222656 303.871094 C 201.867188 303.65625 202.507812 303.445312 203.148438 303.230469 C 204.425781 302.789062 205.71875 302.417969 206.957031 301.929688 C 208.199219 301.449219 209.433594 300.972656 210.652344 300.5 C 215.488281 298.484375 220.09375 296.320312 224.3125 293.855469 C 228.597656 291.492188 232.511719 288.886719 236.097656 286.238281 C 239.683594 283.582031 242.949219 280.878906 245.886719 278.183594 C 251.707031 272.738281 256.324219 267.480469 259.777344 262.875 C 263.222656 258.273438 265.695312 254.453125 267.257812 251.78125 C 268.074219 250.460938 268.617188 249.40625 269.027344 248.714844 C 269.425781 248.019531 269.628906 247.65625 269.628906 247.65625 C 269.628906 247.65625 269.453125 248.03125 269.117188 248.761719 C 268.769531 249.484375 268.3125 250.585938 267.605469 251.96875 C 266.230469 254.757812 264.097656 258.804688 260.894531 263.667969 C 257.710938 268.546875 253.402344 274.210938 247.726562 280.074219 C 244.878906 282.988281 241.683594 285.945312 238.140625 288.863281 C 234.59375 291.773438 230.683594 294.652344 226.363281 297.285156 C 222.109375 300.023438 217.425781 302.460938 212.472656 304.746094 C 211.21875 305.285156 209.953125 305.828125 208.679688 306.378906 C 207.40625 306.929688 206.074219 307.363281 204.757812 307.871094 C 204.097656 308.117188 203.433594 308.363281 202.765625 308.609375 C 202.097656 308.847656 201.410156 309.042969 200.730469 309.261719 C 199.363281 309.683594 197.996094 310.148438 196.597656 310.539062 C 190.996094 312.109375 185.121094 313.273438 179.050781 314.035156 C 177.53125 314.195312 176 314.355469 174.464844 314.519531 C 172.917969 314.601562 171.367188 314.6875 169.804688 314.773438 C 169.027344 314.832031 168.242188 314.839844 167.457031 314.835938 C 166.671875 314.839844 165.886719 314.84375 165.097656 314.851562 C 164.308594 314.847656 163.515625 314.875 162.722656 314.847656 C 161.933594 314.8125 161.140625 314.777344 160.34375 314.742188 C 153.984375 314.457031 147.519531 313.71875 141.097656 312.34375 C 134.675781 310.976562 128.285156 309.054688 122.058594 306.574219 " fill-opacity="1" fill-rule="nonzero"/><g clip-path="url(#d29f0a54a9)"><path fill="#7ed957" d="M 200.320312 334.683594 C 278.5 310.898438 322.597656 228.242188 298.816406 150.058594 C 275.035156 71.878906 192.375 27.78125 114.195312 51.5625 C 71.253906 64.625 38.601562 95.453125 21.824219 133.539062 C 38.507812 87.480469 75.925781 49.570312 126.402344 34.21875 C 211.472656 8.335938 301.417969 56.324219 327.300781 141.398438 C 353.175781 226.46875 305.191406 316.414062 220.117188 342.292969 C 169.644531 357.648438 117.453125 347 77.949219 318.035156 C 113.09375 340.324219 157.378906 347.746094 200.320312 334.683594 " fill-opacity="1" fill-rule="nonzero"/></g><g clip-path="url(#9d6a9c81ad)"><path fill="#00bf63" d="M 279.980469 351.265625 C 279.707031 351.265625 279.433594 351.175781 279.21875 351.003906 L 265.308594 340.058594 C 265.011719 339.824219 264.839844 339.46875 264.839844 339.089844 C 264.839844 338.710938 265.011719 338.359375 265.308594 338.121094 L 279.21875 327.179688 C 279.433594 327.007812 279.707031 326.914062 279.980469 326.914062 C 280.359375 326.914062 280.714844 327.085938 280.949219 327.386719 C 281.152344 327.644531 281.242188 327.964844 281.203125 328.292969 C 281.167969 328.617188 281 328.910156 280.742188 329.113281 L 268.066406 339.089844 L 280.742188 349.066406 C 281 349.269531 281.167969 349.5625 281.203125 349.886719 C 281.242188 350.214844 281.152344 350.535156 280.949219 350.796875 C 280.714844 351.09375 280.359375 351.265625 279.980469 351.265625 " fill-opacity="1" fill-rule="nonzero"/><path fill="#7ed957" d="M 279.980469 326.390625 C 279.589844 326.390625 279.203125 326.523438 278.894531 326.765625 L 264.984375 337.710938 C 264.558594 338.046875 264.3125 338.550781 264.3125 339.089844 C 264.3125 339.632812 264.558594 340.136719 264.984375 340.472656 L 278.894531 351.414062 C 279.203125 351.65625 279.589844 351.792969 279.980469 351.792969 C 280.523438 351.792969 281.027344 351.546875 281.363281 351.121094 C 281.652344 350.753906 281.78125 350.292969 281.726562 349.828125 C 281.671875 349.359375 281.4375 348.941406 281.066406 348.652344 L 268.914062 339.089844 L 281.066406 329.527344 C 281.4375 329.234375 281.671875 328.820312 281.726562 328.355469 C 281.78125 327.886719 281.652344 327.429688 281.363281 327.058594 C 281.027344 326.632812 280.523438 326.390625 279.980469 326.390625 Z M 279.980469 327.441406 C 280.191406 327.441406 280.398438 327.53125 280.535156 327.707031 C 280.78125 328.015625 280.726562 328.460938 280.417969 328.703125 L 267.214844 339.089844 L 280.417969 349.476562 C 280.726562 349.71875 280.78125 350.164062 280.535156 350.472656 C 280.398438 350.648438 280.191406 350.742188 279.980469 350.742188 C 279.828125 350.742188 279.675781 350.695312 279.542969 350.589844 L 265.632812 339.648438 C 265.464844 339.511719 265.363281 339.308594 265.363281 339.089844 C 265.363281 338.871094 265.464844 338.667969 265.632812 338.535156 L 279.542969 327.589844 C 279.671875 327.488281 279.828125 327.441406 279.980469 327.441406 " fill-opacity="1" fill-rule="nonzero"/></g><g clip-path="url(#1b984acc2f)"><path fill="#00bf63" d="M 298.335938 351.265625 C 297.953125 351.265625 297.601562 351.09375 297.363281 350.796875 C 296.945312 350.261719 297.039062 349.488281 297.574219 349.066406 L 310.253906 339.089844 L 297.574219 329.113281 C 297.039062 328.695312 296.945312 327.917969 297.363281 327.386719 C 297.601562 327.085938 297.953125 326.914062 298.335938 326.914062 C 298.609375 326.914062 298.878906 327.007812 299.097656 327.179688 L 313.007812 338.121094 C 313.304688 338.359375 313.476562 338.710938 313.476562 339.089844 C 313.476562 339.46875 313.304688 339.824219 313.003906 340.058594 L 299.097656 351.003906 C 298.878906 351.175781 298.609375 351.265625 298.335938 351.265625 " fill-opacity="1" fill-rule="nonzero"/></g><g clip-path="url(#6101f42dcd)"><path fill="#7ed957" d="M 298.335938 326.390625 C 297.792969 326.390625 297.289062 326.632812 296.953125 327.058594 C 296.355469 327.820312 296.484375 328.925781 297.246094 329.527344 L 309.402344 339.089844 L 297.246094 348.652344 C 296.484375 349.25 296.355469 350.359375 296.953125 351.121094 C 297.289062 351.546875 297.792969 351.792969 298.335938 351.792969 C 298.726562 351.792969 299.109375 351.65625 299.417969 351.414062 L 313.332031 340.472656 C 313.757812 340.136719 314 339.632812 314 339.089844 C 314 338.550781 313.757812 338.046875 313.332031 337.710938 L 299.421875 326.765625 C 299.113281 326.523438 298.726562 326.390625 298.335938 326.390625 Z M 298.335938 327.441406 C 298.488281 327.441406 298.644531 327.488281 298.769531 327.589844 L 312.683594 338.535156 C 312.851562 338.667969 312.949219 338.871094 312.949219 339.089844 C 312.949219 339.308594 312.851562 339.511719 312.683594 339.648438 L 298.769531 350.589844 C 298.644531 350.695312 298.488281 350.742188 298.335938 350.742188 C 298.125 350.742188 297.917969 350.648438 297.777344 350.472656 C 297.539062 350.164062 297.589844 349.71875 297.894531 349.476562 L 311.101562 339.089844 L 297.894531 328.703125 C 297.589844 328.460938 297.539062 328.015625 297.777344 327.707031 C 297.917969 327.53125 298.125 327.441406 298.335938 327.441406 " fill-opacity="1" fill-rule="nonzero"/></g><path fill="#00bf63" d="M 282.246094 357.871094 C 282.09375 357.871094 281.941406 357.839844 281.800781 357.785156 C 281.492188 357.667969 281.25 357.4375 281.117188 357.136719 C 280.984375 356.832031 280.976562 356.5 281.09375 356.195312 L 294.679688 321.097656 C 294.863281 320.628906 295.324219 320.3125 295.828125 320.3125 C 295.980469 320.3125 296.132812 320.339844 296.277344 320.394531 C 296.90625 320.640625 297.222656 321.355469 296.980469 321.988281 L 283.394531 357.082031 C 283.210938 357.554688 282.75 357.871094 282.246094 357.871094 " fill-opacity="1" fill-rule="nonzero"/><g clip-path="url(#35a73fd2c4)"><path fill="#7ed957" d="M 295.828125 319.785156 C 295.109375 319.785156 294.449219 320.238281 294.191406 320.910156 L 280.605469 356.003906 C 280.4375 356.441406 280.449219 356.917969 280.636719 357.347656 C 280.828125 357.777344 281.171875 358.109375 281.613281 358.277344 C 281.816406 358.355469 282.027344 358.394531 282.246094 358.394531 C 282.964844 358.394531 283.625 357.945312 283.882812 357.273438 L 297.46875 322.179688 C 297.820312 321.273438 297.367188 320.253906 296.460938 319.90625 C 296.261719 319.824219 296.046875 319.785156 295.828125 319.785156 Z M 295.828125 320.835938 C 295.914062 320.835938 296 320.851562 296.085938 320.882812 C 296.449219 321.023438 296.628906 321.433594 296.488281 321.796875 L 282.902344 356.894531 C 282.796875 357.171875 282.527344 357.347656 282.246094 357.347656 C 282.160156 357.347656 282.074219 357.332031 281.988281 357.296875 C 281.625 357.15625 281.445312 356.746094 281.585938 356.382812 L 295.171875 321.289062 C 295.277344 321.007812 295.546875 320.835938 295.828125 320.835938 " fill-opacity="1" fill-rule="nonzero"/></g><g clip-path="url(#dbf28adfc6)"><path fill="#7ed957" d="M 287.875 178.464844 C 287.4375 174.945312 284.042969 173.609375 284.042969 173.609375 C 284.335938 172.816406 284.4375 172.292969 284.441406 172.289062 C 284.882812 170.976562 284.417969 170.222656 284.417969 170.222656 C 284.417969 170.222656 284.890625 167.425781 282.121094 167.726562 C 281.953125 164.066406 280.785156 155.457031 273.59375 152.804688 C 264.378906 149.402344 259.722656 154.414062 258.191406 155.917969 C 257.527344 156.460938 256.945312 157.058594 256.433594 157.683594 C 255.921875 158.3125 255.484375 158.96875 255.105469 159.636719 C 255.085938 159.566406 255.0625 159.503906 255.046875 159.433594 C 254.597656 157.867188 254.714844 156.683594 255.519531 155.238281 C 256.398438 153.652344 257.691406 152.449219 258.832031 151.066406 C 260.324219 149.25 261.410156 147.238281 262.113281 144.992188 C 263.140625 141.71875 262.761719 137.9375 260.84375 135.128906 L 260.847656 135.128906 C 260.386719 134.386719 259.800781 133.765625 259.132812 133.25 C 258.984375 133.125 258.828125 133 258.667969 132.886719 C 257.945312 132.363281 257.046875 131.972656 256.109375 131.679688 C 254.847656 131.25 253.527344 131.011719 252.308594 130.882812 C 249.800781 131.875 247.386719 133.113281 245.074219 134.582031 C 244.863281 135.089844 244.667969 135.609375 244.488281 136.113281 C 243.96875 136.046875 243.441406 136.023438 242.921875 136.03125 C 238.582031 139.128906 234.660156 143.035156 231.28125 147.59375 C 233.5 145.976562 239.027344 141.996094 241.046875 140.957031 C 241.125 140.941406 241.203125 140.921875 241.277344 140.90625 C 242.882812 141.988281 246.707031 144.847656 247.625 148.117188 C 247.648438 148.207031 247.957031 149.613281 247.3125 150.585938 C 246.957031 151.082031 246.515625 151.773438 246.0625 152.53125 C 245.609375 153.289062 245.136719 154.113281 244.710938 154.875 C 241.367188 159.792969 237.847656 168.324219 251.152344 170.996094 C 251.164062 171.5625 251.285156 172.175781 251.578125 172.804688 C 251.257812 173.050781 251.078125 173.585938 251.242188 174.632812 C 251.0625 174.933594 251.023438 175.28125 251.058594 175.628906 C 250.828125 176.082031 250.425781 177.011719 249.753906 178.894531 L 249.429688 179.195312 L 232.222656 194 L 251.664062 218.929688 L 269.132812 242.449219 C 269.941406 241.191406 270.863281 239.996094 271.835938 238.839844 C 272.949219 235.703125 275.28125 233.136719 277.765625 230.859375 C 277.839844 230.785156 277.917969 230.714844 277.996094 230.644531 C 278.042969 230.535156 278.09375 230.421875 278.144531 230.3125 C 278.25 230.070312 278.359375 229.828125 278.46875 229.585938 C 278.835938 228.78125 279.203125 227.96875 279.636719 227.199219 C 279.855469 226.8125 280.074219 226.421875 280.328125 226.058594 C 280.582031 225.695312 281.25 224.808594 281.488281 224.496094 C 282.886719 222.566406 284.136719 220.546875 285.320312 218.476562 C 286.738281 215.984375 288.074219 213.457031 289.667969 211.066406 C 291.21875 208.734375 292.855469 206.464844 294.390625 204.121094 C 296.957031 200.195312 299.339844 195.765625 302.796875 192.503906 Z M 254.210938 137.035156 C 255.089844 137.300781 255.863281 137.644531 256.3125 138.265625 C 258.613281 141.429688 256.789062 145.257812 255.210938 148.273438 C 254.507812 149.609375 253.628906 150.828125 252.832031 152.078125 C 253.496094 148.820312 253.28125 146.402344 253.28125 146.402344 C 252.378906 141.613281 250.53125 138.894531 248.304688 137.449219 C 251.617188 136.679688 254.210938 137.035156 254.210938 137.035156 Z M 252.910156 166.246094 C 251.964844 165.84375 249.410156 164.625 247.519531 162.550781 C 247.519531 162.546875 247.523438 162.542969 247.523438 162.539062 C 247.601562 162.410156 247.679688 162.28125 247.753906 162.152344 C 249 160.835938 249.976562 159.425781 250.726562 158.011719 C 250.761719 159.371094 251.292969 160.75 251.78125 161.984375 C 252.117188 162.835938 252.617188 163.664062 253.3125 164.191406 C 253.117188 164.976562 252.988281 165.679688 252.910156 166.246094 Z M 252.910156 166.246094 " fill-opacity="1" fill-rule="nonzero"/></g><g clip-path="url(#db38e5f373)"><path fill="#fffbf8" d="M 270.878906 190.691406 L 271.074219 191.109375 L 274.929688 196.292969 C 274.929688 196.292969 274.179688 191.777344 270.878906 190.691406 Z M 302.796875 192.503906 L 287.875 178.464844 C 287.4375 174.945312 284.042969 173.609375 284.042969 173.609375 C 284.335938 172.816406 284.4375 172.292969 284.441406 172.289062 C 284.882812 170.976562 284.417969 170.222656 284.417969 170.222656 C 284.417969 170.222656 284.890625 167.425781 282.121094 167.726562 C 281.953125 164.066406 280.785156 155.457031 273.59375 152.804688 C 264.378906 149.402344 259.722656 154.414062 258.191406 155.917969 C 257.527344 156.460938 256.945312 157.058594 256.433594 157.683594 C 255.921875 158.3125 255.484375 158.96875 255.105469 159.636719 C 255.085938 159.566406 255.0625 159.503906 255.046875 159.433594 C 254.597656 157.867188 254.714844 156.683594 255.519531 155.238281 C 256.398438 153.652344 257.691406 152.449219 258.832031 151.066406 C 260.324219 149.25 261.410156 147.238281 262.113281 144.992188 C 263.140625 141.71875 262.761719 137.9375 260.84375 135.128906 L 260.847656 135.128906 C 260.386719 134.386719 259.800781 133.765625 259.132812 133.25 C 258.984375 133.125 258.828125 133 258.667969 132.886719 C 257.945312 132.363281 257.046875 131.972656 256.109375 131.679688 C 254.847656 131.25 253.527344 131.011719 252.308594 130.882812 C 249.636719 130.609375 247.453125 130.871094 247.453125 130.871094 C 246.6875 131.078125 245.8125 132.765625 245.074219 134.582031 C 244.863281 135.089844 244.667969 135.609375 244.488281 136.113281 C 243.96875 136.046875 243.441406 136.023438 242.921875 136.03125 C 239.816406 136.066406 236.777344 137.195312 234.917969 137.875 C 231.5625 139.105469 230.453125 143.183594 230.109375 145.117188 C 229.984375 145.75 229.964844 146.152344 229.964844 146.152344 C 229.964844 146.152344 229.964844 147.34375 230.34375 148.28125 C 230.34375 148.28125 230.699219 148.023438 231.28125 147.59375 C 233.5 145.976562 239.027344 141.996094 241.046875 140.957031 C 241.125 140.941406 241.203125 140.921875 241.277344 140.90625 C 242.882812 141.988281 246.707031 144.847656 247.625 148.117188 C 247.648438 148.207031 247.957031 149.613281 247.3125 150.585938 C 246.957031 151.082031 246.515625 151.773438 246.0625 152.53125 C 245.609375 153.289062 245.136719 154.113281 244.710938 154.875 C 241.367188 159.792969 237.847656 168.324219 251.152344 170.996094 C 251.164062 171.5625 251.285156 172.175781 251.578125 172.804688 C 251.257812 173.050781 251.078125 173.585938 251.242188 174.632812 C 251.0625 174.933594 251.023438 175.28125 251.058594 175.628906 C 250.828125 176.082031 250.425781 177.011719 249.753906 178.894531 L 249.429688 179.195312 L 232.222656 194 L 249.855469 220.078125 L 267.578125 245.488281 L 277.765625 230.859375 L 278.144531 230.3125 L 303.808594 193.457031 Z M 296.722656 190.894531 L 298.917969 193.457031 L 296.339844 197.1875 Z M 296.160156 190.242188 L 292.402344 202.871094 L 287.105469 210.527344 C 290.414062 200.738281 292.734375 189.996094 293.359375 186.976562 Z M 284.222656 175.214844 C 284.964844 176.53125 286.300781 179.085938 286.300781 180.503906 C 286.300781 181.621094 284.976562 184.273438 283.558594 186.703125 L 285.066406 181.214844 L 282.066406 186.429688 C 282.335938 184.832031 282.527344 183.375 282.667969 182.148438 L 284.441406 180.027344 L 282.886719 180.503906 L 282.808594 180.804688 C 282.851562 180.382812 282.882812 180.003906 282.910156 179.679688 L 282.996094 179.5 Z M 271.75 203.8125 C 270.378906 204.398438 269.1875 204.558594 268.433594 204.59375 L 268.832031 197.679688 L 266.261719 200.941406 C 266.304688 198.4375 267.578125 195.964844 267.578125 195.964844 L 264.027344 198.484375 L 263.78125 198.0625 C 264.816406 195.554688 265.652344 190.242188 265.652344 190.242188 C 264.46875 193.292969 262.019531 193.816406 261.351562 193.902344 L 261.339844 193.875 C 262.671875 193.417969 263.019531 190.707031 263.019531 190.707031 C 261.550781 191.433594 260.402344 191.292969 259.679688 191.027344 L 259.460938 190.65625 C 263.011719 191.125 264.695312 188.136719 264.949219 187.640625 C 265.933594 186.949219 266.828125 186.835938 267.515625 186.910156 C 267.738281 186.914062 267.949219 186.941406 268.164062 186.976562 L 269.207031 189.671875 L 269.207031 187.285156 C 269.363281 187.347656 269.515625 187.410156 269.664062 187.484375 C 269.664062 187.484375 274.382812 190.78125 277.757812 189.277344 C 277.757812 189.277344 274.570312 189.261719 271.800781 187.882812 C 274.179688 188.21875 276.363281 188.027344 278.960938 186.144531 C 282.507812 183.574219 281.625 177.734375 281.625 177.734375 L 281.601562 177.761719 C 282.296875 176.964844 282.835938 176.140625 283.246094 175.378906 L 282.621094 180.28125 L 280.992188 188.464844 C 279.65625 196.238281 276.855469 200.28125 274.160156 202.378906 L 268.832031 191.078125 Z M 254.582031 172.589844 C 254.382812 171.703125 254.582031 171.09375 254.582031 171.09375 C 259.671875 175.492188 263.429688 176.808594 265.003906 177.191406 C 264.695312 177.253906 264.378906 177.320312 264.058594 177.378906 C 263.019531 177.183594 261.941406 176.925781 260.84375 176.589844 C 259.027344 176.03125 257.152344 175.246094 255.300781 174.171875 C 255.125 173.921875 254.984375 173.679688 254.875 173.445312 L 260.84375 176.589844 Z M 259.886719 184.011719 C 258.46875 183.550781 257.773438 181.980469 257.480469 181.0625 C 259.332031 181.960938 261.480469 182.820312 263.636719 183.277344 C 262.941406 183.722656 261.402344 184.507812 259.886719 184.011719 Z M 264.117188 187.234375 C 262.921875 187.632812 261.746094 187.652344 260.671875 187.472656 C 262.214844 187.023438 263.144531 186.023438 263.601562 185.394531 Z M 260.617188 184.816406 C 260.613281 184.820312 260.613281 184.824219 260.605469 184.824219 L 260.558594 184.824219 C 260.578125 184.824219 260.597656 184.820312 260.617188 184.816406 Z M 269.289062 183.492188 C 269.484375 184.210938 270.070312 185.886719 271.339844 186.386719 C 271.339844 186.386719 270.429688 184.492188 270.417969 183.242188 C 270.480469 183.226562 270.542969 183.210938 270.605469 183.191406 C 270.855469 183.5 272.976562 185.964844 276.308594 185.101562 C 276.308594 185.101562 275.207031 185.097656 274.285156 184.566406 C 275.496094 184.699219 278.410156 184.613281 280.320312 181.214844 C 280.320312 181.214844 278.472656 183.148438 276.632812 183.6875 C 278.335938 182.414062 278.960938 180.027344 278.960938 180.027344 L 278.851562 180.035156 C 279.636719 179.578125 280.316406 179.050781 280.902344 178.488281 L 280.882812 178.507812 C 280.523438 188.992188 271.402344 187.773438 269.457031 186.386719 C 267.515625 184.996094 265.820312 186.386719 265.820312 186.386719 C 265.28125 186.75 264.742188 187.015625 264.199219 187.203125 L 265.398438 183.558594 C 265.667969 183.585938 265.9375 183.605469 266.203125 183.617188 L 266.199219 183.628906 C 267.238281 183.734375 268.277344 183.671875 269.289062 183.492188 Z M 271.230469 183.003906 C 272.417969 182.621094 273.539062 182.109375 274.542969 181.566406 L 274.546875 181.5625 C 274.609375 181.53125 274.664062 181.5 274.726562 181.464844 C 275.730469 181.3125 276.636719 181.058594 277.449219 180.726562 C 277.171875 181.632812 276.480469 183.285156 275.015625 183.761719 C 273.472656 184.265625 271.910156 183.445312 271.230469 183.003906 Z M 278.492188 178.980469 C 278.691406 178.800781 278.894531 178.613281 279.089844 178.417969 L 279.09375 178.417969 C 279.445312 178.066406 279.796875 177.683594 280.15625 177.269531 L 281.175781 176.25 C 281.796875 175.769531 282.304688 175.308594 282.726562 174.875 C 282.015625 176.773438 280.089844 178.132812 278.492188 178.980469 Z M 281.234375 190.585938 L 281.238281 190.582031 C 281.652344 190.175781 282.285156 189.542969 282.996094 188.75 C 283.464844 188.222656 283.972656 187.628906 284.472656 186.988281 C 283.976562 189.320312 282.234375 196.007812 277.730469 200.585938 C 279.328125 197.519531 280.449219 193.953125 281.234375 190.585938 Z M 282.933594 168.445312 C 283.527344 169.042969 284.027344 170.085938 283.332031 171.769531 L 283.679688 171.277344 C 283.710938 171.617188 283.664062 171.976562 283.5625 172.339844 C 282.636719 173.671875 280.710938 176.164062 280.710938 176.164062 C 280.195312 176.632812 279.550781 177.1875 278.796875 177.78125 C 278.042969 178.367188 277.183594 178.992188 276.242188 179.585938 C 278.046875 177.542969 280.3125 174.371094 281.175781 173.136719 C 280.195312 174.433594 278.289062 176.296875 276.503906 177.941406 C 274.71875 179.585938 273.058594 181.007812 272.570312 181.421875 C 271.222656 181.898438 269.929688 182.242188 268.882812 182.484375 L 270.878906 180.503906 L 267.105469 182.695312 C 266.53125 182.699219 265.957031 182.660156 265.382812 182.570312 C 263.523438 182.277344 261.835938 181.738281 260.324219 181.085938 C 263.902344 181.632812 267.074219 180.613281 267.074219 180.613281 C 262.675781 180.890625 258.53125 179.199219 255.589844 177.535156 C 257.121094 177.980469 258.644531 178.363281 259.0625 178.46875 C 257.535156 178.03125 256.15625 177.191406 255.035156 176.3125 C 255.082031 176.023438 255.175781 175.773438 255.285156 175.570312 C 259.117188 177.746094 266.066406 180.386719 274.253906 177.546875 C 274.074219 177.582031 271.320312 178.101562 267.429688 177.816406 C 270.441406 177.066406 276.566406 175.089844 280.800781 170.722656 C 280.800781 170.722656 281.1875 170.425781 281.644531 169.992188 C 282.105469 169.558594 282.636719 168.988281 282.933594 168.445312 Z M 273.582031 174.453125 L 273.714844 174.394531 C 273.675781 174.414062 273.628906 174.433594 273.585938 174.453125 C 273.585938 174.453125 273.585938 174.453125 273.582031 174.453125 Z M 259.28125 158.796875 C 260.179688 157.542969 261.171875 156.417969 262.046875 155.507812 C 262.90625 154.722656 263.910156 153.953125 265.085938 153.203125 C 265.324219 153.105469 265.570312 153.027344 265.816406 152.980469 L 265.820312 152.980469 L 270.167969 160.632812 L 268.503906 152.808594 C 268.515625 152.820312 270.007812 154.007812 271.601562 155.816406 C 273.1875 157.617188 274.871094 160.03125 275.285156 162.492188 C 275.238281 162.089844 274.449219 155.648438 272.332031 153.386719 C 273.992188 153.914062 275.601562 154.863281 276.800781 156.523438 C 280.46875 161.597656 280.886719 169.042969 280.929688 170.042969 C 280.542969 170.359375 280.089844 170.707031 279.566406 171.078125 L 279.800781 164.457031 L 277.785156 172.25 C 277.25 172.578125 276.671875 172.914062 276.046875 173.25 L 276.476562 170.222656 L 275.113281 173.734375 C 274.761719 173.910156 274.398438 174.082031 274.023438 174.253906 L 269.707031 170.722656 L 272.714844 174.261719 C 271.808594 174.027344 270.871094 173.679688 269.953125 173.265625 L 263.273438 162.324219 L 265.957031 171.09375 C 265.867188 171.039062 265.777344 170.980469 265.6875 170.925781 L 261.183594 165.082031 L 262.769531 171.429688 C 262.425781 171.382812 262.066406 171.3125 261.703125 171.226562 L 258.621094 163.746094 L 259.734375 170.632812 C 259.324219 170.484375 258.910156 170.324219 258.5 170.15625 C 258.375 170.027344 258.257812 169.898438 258.144531 169.769531 C 257.445312 167.789062 256.460938 163.355469 259.28125 158.796875 Z M 255.199219 169.472656 C 255.890625 169.992188 256.628906 170.480469 257.390625 170.933594 L 257.425781 170.96875 L 257.457031 170.972656 C 262.484375 173.917969 268.601562 175.355469 270.347656 175.722656 C 269.46875 176.027344 268.546875 176.3125 267.566406 176.578125 C 264 176.695312 257.621094 172.707031 254.425781 170.539062 C 254.527344 170.160156 254.910156 169.746094 255.199219 169.472656 Z M 254.210938 137.035156 C 255.089844 137.300781 255.863281 137.644531 256.3125 138.265625 C 258.613281 141.429688 256.789062 145.257812 255.210938 148.273438 C 254.507812 149.609375 253.628906 150.828125 252.832031 152.078125 C 253.496094 148.820312 253.28125 146.402344 253.28125 146.402344 C 252.378906 141.613281 250.53125 138.894531 248.304688 137.449219 C 251.617188 136.679688 254.210938 137.035156 254.210938 137.035156 Z M 251.839844 146.210938 L 251.84375 146.210938 C 251.84375 146.210938 251.839844 146.191406 251.832031 146.164062 C 251.71875 145.511719 251.570312 144.859375 251.382812 144.207031 C 251.117188 143.300781 250.84375 142.417969 250.40625 141.578125 C 250.25 141.273438 250.066406 141.039062 249.867188 140.832031 C 249.832031 140.773438 249.800781 140.71875 249.765625 140.667969 L 250.113281 140.78125 C 253.246094 144.105469 253.082031 148.554688 251.867188 152.558594 C 251.949219 151.929688 252.011719 151.296875 252.054688 150.667969 C 252.15625 149.148438 252.089844 147.675781 251.839844 146.210938 Z M 245.496094 155.695312 C 246.484375 153.722656 247.386719 152.152344 247.917969 151.257812 C 248.09375 151.019531 248.265625 150.75 248.410156 150.449219 C 248.414062 150.445312 248.417969 150.4375 248.417969 150.4375 L 248.414062 150.4375 C 248.667969 149.90625 248.824219 149.289062 248.730469 148.617188 C 248.589844 147.621094 247.964844 145.964844 246.871094 144.386719 C 248.070312 145.625 249.667969 147.753906 249.367188 150.128906 C 249.152344 151.1875 248.765625 152.191406 248.273438 153.027344 C 247.402344 154.515625 246.3125 155.835938 245.648438 157.441406 C 245.546875 157.6875 245.457031 157.941406 245.375 158.195312 C 245.277344 157.421875 245.304688 156.585938 245.496094 155.695312 Z M 246.574219 161.332031 C 247.398438 159.9375 248.566406 155.332031 248.566406 155.332031 C 247.980469 156.78125 246.417969 158.996094 245.800781 159.84375 C 245.726562 159.648438 245.65625 159.449219 245.59375 159.242188 C 245.738281 158.414062 246.101562 157.566406 246.449219 156.867188 C 246.777344 156.199219 247.1875 155.574219 247.601562 154.953125 C 252.285156 149.300781 249.050781 145.257812 249.050781 145.257812 C 248.851562 144.902344 248.621094 144.566406 248.34375 144.257812 C 248.421875 144.339844 248.496094 144.417969 248.566406 144.496094 C 248.417969 144.316406 248.1875 144.046875 247.886719 143.714844 C 247.878906 143.703125 247.867188 143.695312 247.859375 143.6875 C 247.039062 142.785156 245.726562 141.476562 244.207031 140.457031 C 244.660156 140.414062 245.089844 140.382812 245.5 140.367188 C 246.804688 141.226562 248.273438 142.472656 249.128906 144.09375 C 249.089844 143.96875 248.46875 141.878906 247.574219 140.363281 C 247.84375 140.375 248.089844 140.394531 248.320312 140.410156 C 249.132812 141.0625 250.613281 142.726562 251.214844 146.523438 C 251.257812 147.917969 251.089844 149.359375 250.945312 150.667969 C 250.710938 152.804688 250.285156 154.921875 249.34375 156.867188 C 248.574219 158.441406 247.53125 159.882812 246.597656 161.375 C 246.59375 161.363281 246.582031 161.347656 246.574219 161.332031 Z M 247.519531 162.550781 C 247.519531 162.546875 247.523438 162.542969 247.523438 162.539062 C 247.601562 162.410156 247.679688 162.28125 247.757812 162.152344 C 249 160.835938 249.976562 159.425781 250.726562 158.011719 C 250.761719 159.371094 251.292969 160.75 251.78125 161.984375 C 252.117188 162.835938 252.617188 163.664062 253.3125 164.191406 C 253.117188 164.976562 252.988281 165.679688 252.910156 166.246094 C 251.964844 165.84375 249.410156 164.625 247.519531 162.550781 Z M 275.667969 227.046875 L 280.929688 211.523438 L 271.066406 233.1875 C 270.054688 232.738281 269.082031 231.949219 268.167969 230.957031 C 271.773438 227.972656 276.039062 216.242188 276.296875 215.515625 C 273.472656 222.648438 268.691406 226.964844 266.398438 228.726562 C 265.25 227.070312 264.242188 225.210938 263.425781 223.523438 C 266.941406 224.457031 270.289062 222.71875 270.453125 222.628906 C 266.402344 223.335938 263.566406 220.953125 262.011719 219.085938 C 265.457031 221.863281 270.878906 217.925781 270.878906 217.925781 C 267.917969 217.851562 265.15625 215.757812 262.886719 213.222656 C 267.578125 214.953125 269.664062 212.785156 269.664062 212.785156 C 265.21875 213.378906 261.65625 211.003906 260.359375 209.984375 C 260.300781 209.898438 260.242188 209.816406 260.1875 209.734375 C 265.949219 212.808594 271.6875 209.402344 271.6875 209.402344 C 268.84375 210.246094 266.164062 209.71875 263.945312 208.75 C 266.597656 209.097656 268.808594 208.460938 268.808594 208.460938 C 272.558594 207.734375 275.320312 204.910156 277.359375 201.261719 C 279.925781 199.378906 285.097656 194.367188 286.488281 183.964844 C 286.496094 183.949219 286.503906 183.933594 286.515625 183.914062 C 286.238281 188.234375 285.394531 197.855469 283.160156 203.371094 C 283.171875 203.363281 283.179688 203.363281 283.183594 203.359375 C 284.875 199.667969 289.769531 188.46875 289.742188 182.761719 L 292.121094 185.53125 C 292.035156 194.3125 285.710938 209.417969 281.273438 218.949219 Z M 270.878906 190.691406 L 271.074219 191.109375 L 274.929688 196.292969 C 274.929688 196.292969 274.179688 191.777344 270.878906 190.691406 Z M 270.878906 190.691406 L 271.074219 191.109375 L 274.929688 196.292969 C 274.929688 196.292969 274.179688 191.777344 270.878906 190.691406 Z M 270.878906 190.691406 " fill-opacity="1" fill-rule="nonzero"/></g><path fill="#7ed957" d="M 261.484375 140.445312 C 261.078125 132.945312 255.039062 133.949219 255.039062 133.949219 C 257.398438 134.070312 258.617188 136.089844 259.113281 137.203125 C 258.648438 136.941406 258.179688 136.777344 257.773438 136.675781 C 257.03125 136.484375 256.480469 136.496094 256.480469 136.496094 C 256.480469 136.496094 256.765625 136.824219 257.117188 137.425781 C 258.109375 139.125 259.597656 143.011719 256.480469 147.816406 C 256.480469 147.816406 258.917969 146.269531 259.550781 145.460938 C 259.519531 145.570312 258.777344 148.015625 257.585938 150.011719 C 257.027344 150.949219 256.371094 151.789062 255.640625 152.242188 C 255.609375 152.265625 255.578125 152.285156 255.546875 152.300781 C 255.554688 152.296875 255.582031 152.28125 255.628906 152.257812 C 256.046875 152.03125 257.898438 150.964844 259.445312 148.945312 C 260.585938 147.457031 261.5625 145.457031 261.683594 142.890625 C 261.730469 141.941406 261.648438 141.136719 261.484375 140.445312 Z M 261.484375 140.445312 " fill-opacity="1" fill-rule="nonzero"/><path fill="#fffbf8" d="M 255.875 136.496094 L 256.835938 135.914062 C 256.835938 135.914062 259.136719 137.332031 259.34375 139.757812 C 259.34375 139.757812 256.667969 136.707031 255.875 136.496094 Z M 256.585938 150.789062 L 255.332031 152.710938 C 258.726562 151.675781 259.917969 148.152344 260.230469 146.644531 C 260.203125 146.660156 260.179688 146.667969 260.152344 146.671875 C 259.578125 148.742188 256.585938 150.789062 256.585938 150.789062 Z M 283.226562 186.101562 L 282.433594 186.925781 L 282.328125 187.480469 L 281.828125 187.148438 L 283.179688 176.90625 C 282.550781 177.816406 281.769531 178.457031 281.027344 178.902344 C 281.226562 183.359375 274.285156 184.566406 274.285156 184.566406 C 276.214844 183.792969 277.605469 182.171875 278.402344 181.015625 C 278.191406 180.714844 278.191406 180.292969 278.191406 180.292969 L 278.832031 179.875 C 278.816406 179.875 278.800781 179.875 278.777344 179.875 L 278.710938 179.832031 C 278.566406 179.863281 278.484375 179.875 278.484375 179.875 L 278.597656 179.757812 L 277.277344 178.902344 L 283.601562 173.230469 C 283.601562 173.230469 283.332031 174.277344 283.226562 174.527344 C 283.183594 174.632812 283.242188 174.796875 283.273438 174.988281 L 283.601562 174.652344 C 283.601562 174.652344 284.820312 173.453125 284.117188 175.125 L 285.003906 175.445312 Z M 284.078125 175.226562 L 284.082031 175.210938 C 284.078125 175.214844 284.078125 175.222656 284.074219 175.226562 Z M 271.085938 187.734375 C 272.089844 189.402344 277.757812 189.277344 277.757812 189.277344 L 273.386719 187.480469 Z M 271.085938 187.734375 " fill-opacity="1" fill-rule="nonzero"/></svg>